<?xml version="1.0" ?><!DOCTYPE svg  PUBLIC '-//W3C//DTD SVG 1.1//EN'  'http://www.w3.org/Graphics/SVG/1.1/DTD/svg11.dtd'><svg enable-background="new 0 0 512 512" height="512px" id="Calque_1" version="1.1" viewBox="0 0 512 512" width="512px" xml:space="preserve" xmlns="http://www.w3.org/2000/svg" xmlns:xlink="http://www.w3.org/1999/xlink"><g><g><path d="    M256.395,356.226h50.508c8.682,0,15.784-7.103,15.784-15.783V237.454v-111.67c0-8.681-7.103-15.784-15.784-15.784H153.8    c-3.251,0-6.282,0.995-8.8,2.699c-4.206,2.841-6.984,7.655-6.984,13.084v214.66" fill="none" stroke="#000000" stroke-dasharray="32.7131,20.4457,1.0223,0,3.0669,32.7131" stroke-linecap="round" stroke-linejoin="round" stroke-miterlimit="10" stroke-width="7"/></g><g><line fill="none" stroke="#000000" stroke-linecap="round" stroke-linejoin="round" stroke-miterlimit="10" stroke-width="7" x1="373.984" x2="272.179" y1="237.454" y2="237.454"/><path d="    M307.318,276.516l-32.366-32.366c-3.698-3.698-3.698-9.694,0-13.393l32.366-32.367" fill="none" stroke="#000000" stroke-linecap="round" stroke-linejoin="round" stroke-miterlimit="10" stroke-width="7"/></g><polyline fill="none" points="   145,112.699 256.395,155.773 256.395,356.226 256.395,402 138.016,356.226 138.016,340.443 138.016,125.783  " stroke="#000000" stroke-linecap="round" stroke-linejoin="round" stroke-miterlimit="10" stroke-width="7"/></g><g><circle cx="256.001" cy="256" fill="none" r="218.662" stroke="#010101" stroke-dasharray="32.7131,20.4457,1.0223,0,3.0669,32.7131" stroke-linecap="round" stroke-linejoin="round" stroke-width="7"/></g></svg>